<?xml version="1.0" encoding="UTF-8" standalone="no"?>
<!DOCTYPE svg PUBLIC "-//W3C//DTD SVG 1.1//EN" "http://www.w3.org/Graphics/SVG/1.1/DTD/svg11.dtd">
<svg width="100%" height="100%" viewBox="0 0 500 140" version="1.1" xmlns="http://www.w3.org/2000/svg" xmlns:xlink="http://www.w3.org/1999/xlink" xml:space="preserve" xmlns:serif="http://www.serif.com/" style="fill-rule:evenodd;clip-rule:evenodd;stroke-linecap:square;stroke-linejoin:round;stroke-miterlimit:1.5;">
    <rect id="Artboard1" x="0" y="0" width="500" height="140" style="fill:none;"/>
    <g id="Artboard11" serif:id="Artboard1">
        <g transform="matrix(0.990099,0,0,1,0,0)">
            <rect x="0" y="0" width="505" height="140" style="fill:rgb(39,40,34);"/>
        </g>
        <g transform="matrix(1,0,0,1,0,-80)">
            <path d="M20,200L100,200" style="fill:none;stroke:rgb(188,188,188);stroke-width:3px;"/>
        </g>
        <g transform="matrix(1,0,0,1,220,-80)">
            <path d="M20,200L100,200" style="fill:none;stroke:rgb(188,188,188);stroke-width:3px;"/>
        </g>
        <g transform="matrix(0.25,0,0,1,455,-80)">
            <path d="M20,200L100,200" style="fill:none;stroke:rgb(188,188,188);stroke-width:4.12px;"/>
        </g>
        <g transform="matrix(1,0,0,1,0,-80)">
            <path d="M240,100L240,200" style="fill:none;stroke:rgb(255,0,175);stroke-width:3px;"/>
        </g>
        <g transform="matrix(1,0,0,1,220,-80)">
            <path d="M240,100L240,200" style="fill:none;stroke:rgb(255,0,175);stroke-width:3px;"/>
        </g>
        <g transform="matrix(1,0,0,1,0,-80)">
            <path d="M100,200L100,100" style="fill:none;stroke:rgb(255,0,175);stroke-width:3px;"/>
        </g>
        <g transform="matrix(1,0,0,1,220,-80)">
            <path d="M100,200L100,100" style="fill:none;stroke:rgb(255,0,175);stroke-width:3px;"/>
        </g>
        <g transform="matrix(1,0,0,1,0,-80)">
            <path d="M100,100L240,100" style="fill:none;stroke:rgb(255,244,0);stroke-width:3px;"/>
        </g>
        <g transform="matrix(1,0,0,1,220,-80)">
            <path d="M100,100L240,100" style="fill:none;stroke:rgb(255,244,0);stroke-width:3px;"/>
        </g>
        <g transform="matrix(0.5,0,0,0.5,5,5)">
            <rect x="10" y="10" width="20" height="20" style="fill:rgb(255,0,175);"/>
        </g>
        <g transform="matrix(0.5,0,0,0.5,5.12305,25.0537)">
            <rect x="10" y="10" width="20" height="20" style="fill:rgb(255,244,0);"/>
        </g>
        <g transform="matrix(1,0,0,1,-0.287053,5.09205)">
            <g transform="matrix(14,0,0,14,61.7451,14.9079)">
            </g>
            <text x="29.049px" y="14.908px" style="font-family:'ArialMT', 'Arial', sans-serif;font-size:14px;fill:rgb(202,202,202);">Edge</text>
        </g>
        <g transform="matrix(1,0,0,1,-0.164006,25.1458)">
            <g transform="matrix(14,0,0,14,62.5175,14.9079)">
            </g>
            <text x="29.049px" y="14.908px" style="font-family:'ArialMT', 'Arial', sans-serif;font-size:14px;fill:rgb(202,202,202);">Level</text>
        </g>
    </g>
</svg>
