<?xml version="1.0" encoding="UTF-8" standalone="no"?>
<!DOCTYPE svg PUBLIC "-//W3C//DTD SVG 1.1//EN" "http://www.w3.org/Graphics/SVG/1.1/DTD/svg11.dtd">
<svg width="100%" height="100%" viewBox="0 0 500 140" version="1.1" xmlns="http://www.w3.org/2000/svg" xmlns:xlink="http://www.w3.org/1999/xlink" xml:space="preserve" xmlns:serif="http://www.serif.com/" style="fill-rule:evenodd;clip-rule:evenodd;stroke-linecap:square;stroke-linejoin:round;stroke-miterlimit:1.5;">
    <g transform="matrix(1,0,0,1,-550,0)">
        <rect id="Artboard2" x="550" y="0" width="500" height="140" style="fill:none;"/>
        <g id="Artboard21" serif:id="Artboard2">
            <g transform="matrix(0.990099,0,0,1,550,0)">
                <rect x="0" y="0" width="505" height="140" style="fill:rgb(39,40,34);"/>
            </g>
            <g transform="matrix(1,0,0,1,550,-80)">
                <path d="M20,200L100,200" style="fill:none;stroke:rgb(188,188,188);stroke-width:3px;"/>
            </g>
            <g transform="matrix(1,0,0,1,770,-80)">
                <path d="M20,200L100,200" style="fill:none;stroke:rgb(188,188,188);stroke-width:3px;"/>
            </g>
            <g transform="matrix(0.25,0,0,1,1005,-80)">
                <path d="M20,200L100,200" style="fill:none;stroke:rgb(188,188,188);stroke-width:4.12px;"/>
            </g>
            <g transform="matrix(1,0,0,1,550,-80)">
                <path d="M240,100L240,200" style="fill:none;stroke:rgb(255,0,175);stroke-width:3px;"/>
            </g>
            <g transform="matrix(1,0,0,1,770,-80)">
                <path d="M240,100L240,200" style="fill:none;stroke:rgb(255,0,175);stroke-width:3px;"/>
            </g>
            <g transform="matrix(1,0,0,1,550,-80)">
                <path d="M100,200L100,100" style="fill:none;stroke:rgb(188,188,188);stroke-width:3px;"/>
            </g>
            <g transform="matrix(1,0,0,1,770,-80)">
                <path d="M100,200L100,100" style="fill:none;stroke:rgb(188,188,188);stroke-width:3px;"/>
            </g>
            <g transform="matrix(1,0,0,1,550,-80)">
                <path d="M100,100L240,100" style="fill:none;stroke:rgb(188,188,188);stroke-width:3px;"/>
            </g>
            <g transform="matrix(1,0,0,1,770,-80)">
                <path d="M100,100L240,100" style="fill:none;stroke:rgb(188,188,188);stroke-width:3px;"/>
            </g>
        </g>
    </g>
</svg>
